<?xml version="1.0" encoding="UTF-8"?>
<!DOCTYPE svg PUBLIC "-//W3C//DTD SVG 1.1//EN" "http://www.w3.org/Graphics/SVG/1.1/DTD/svg11.dtd">
<!-- Creator: CorelDRAW -->
<svg xmlns="http://www.w3.org/2000/svg" xml:space="preserve" width="2.61205in" height="0.729461in" version="1.1" style="shape-rendering:geometricPrecision; text-rendering:geometricPrecision; image-rendering:optimizeQuality; fillRule:evenodd; clip-rule:evenodd"
viewBox="0 0 2612.05 729.46"
 xmlns:xlink="http://www.w3.org/1999/xlink"
 xmlns:xodm="http://www.corel.com/coreldraw/odm/2003">
 <defs>
  <style type="text/css">
   <![CDATA[
    .fil0 {fill:#09322C}
    .fil1 {fill:#09322C;fillRule:nonzero}
   ]]>
  </style>
 </defs>
 <g id="Layer_x0020_1">
  <metadata id="CorelCorpID_0Corel-Layer"/>
  <g id="_1849327054512">
   <g>
    <path class="fil0" d="M58.22 0.53c-85.16,4.93 -69.72,117.05 0,116.59l276.09 0c104.32,0.81 99.38,124.5 7.42,148.39 225.19,29.89 224.03,-265.08 36.57,-265.5l-320.08 0.53z"/>
    <path class="fil0" d="M115.99 475.89c-10.51,41.12 -104.31,45.43 -113.67,0l0 -92.48c1.81,-233.11 432.86,-177.88 512.98,122.94 -54.74,-70.45 -119.78,-123.85 -197.13,-156.86 -75.63,-32.01 -154.46,-27.69 -183.89,23.85 -15.24,20.64 -15.91,62.84 -18.28,102.54z"/>
    <circle class="fil0" cx="59.57" cy="581.13" r="38.69"/>
    <circle class="fil0" cx="508.16" cy="577.16" r="34.71"/>
    <path class="fil0" d="M108.64 631.5c102.21,127.46 275.32,131.42 372.76,0 -96.57,72.39 -256.77,80.89 -372.76,0z"/>
   </g>
   <path class="fil1" d="M901.7 576.22c-21.89,0.6 -42.57,-2.44 -62.02,-9.13 -24.93,-8.51 -39.53,-21.59 -43.78,-39.23 -6.69,15.2 -20.37,27.52 -41.05,36.94 -18.24,7.61 -37.09,11.41 -56.55,11.41 -44.4,0 -78.61,-12.63 -102.62,-38.01 -24.02,-25.39 -36.04,-60.2 -36.04,-104.14 0,-35.73 15.82,-64.62 47.44,-86.97 29.19,-20.52 62.34,-30.85 99.43,-30.85 27.37,0 53.51,9.11 78.44,27.37l0 -31.02c0,-42.57 -29.49,-63.85 -88.49,-63.85 -32.22,0 -65.06,13.98 -98.52,41.96 0.61,-41.96 15.52,-73.89 44.7,-95.78 26.15,-19.46 61.42,-29.19 105.81,-29.19 41.36,0 77.24,14.44 107.64,43.32 30.4,28.89 45.6,63.7 45.6,104.45l0 262.71zm-118.57 -135.01c0,-12.16 -4.41,-22.81 -13.23,-31.92 -8.81,-9.13 -19.31,-13.69 -31.47,-13.69 -14.6,0 -27.67,3.34 -39.23,10.03 -14.59,7.91 -21.89,18.55 -21.89,31.92 0,15.2 5.62,27.07 16.88,35.57 11.25,8.52 24.78,12.78 40.59,12.78 13.38,0 24.79,-4.11 34.2,-12.31 9.43,-8.21 14.15,-19 14.15,-32.39z"/>
   <path class="fil1" d="M1285.73 280.67c0,26.75 -23.11,91.21 -69.33,193.38 -34.66,77.23 -66.59,143.22 -95.78,197.94 -7.91,13.99 -21.74,27.06 -41.5,39.22 -19.77,12.17 -37.56,18.25 -53.36,18.25 -16.42,0 -32.24,-4.57 -47.44,-13.68l71.15 -162.37c-21.89,-45 -44.09,-90 -66.59,-135 -31,-65.06 -46.52,-109.16 -46.52,-132.26 0,-49.87 22.2,-87.57 66.59,-113.11l110.38 236.26 115.84 -236.26c37.71,27.97 56.56,63.86 56.56,107.64z"/>
   <path class="fil1" d="M1674.32 283.41c0,31.62 -13.08,76.01 -39.23,133.17 -8.51,18.85 -30.1,61.72 -64.76,128.62 -15.81,30.41 -41.05,45.61 -75.72,45.61 -36.48,0 -62.63,-15.2 -78.44,-45.61 -70.55,-133.79 -105.81,-223.79 -105.81,-270 0,-47.44 21.58,-81.49 64.76,-102.17l115.85 290.07 129.52 -292.81c35.89,31.02 53.83,68.72 53.83,113.11z"/>
   <path class="fil1" d="M2063.82 283.41c0,31.62 -13.08,76.01 -39.23,133.17 -8.51,18.85 -30.1,61.72 -64.76,128.62 -15.81,30.41 -41.05,45.61 -75.72,45.61 -36.48,0 -62.63,-15.2 -78.44,-45.61 -70.55,-133.79 -105.81,-223.79 -105.81,-270 0,-47.44 21.58,-81.49 64.76,-102.17l115.85 290.07 129.52 -292.81c35.89,31.02 53.83,68.72 53.83,113.11z"/>
   <path class="fil1" d="M2231.67 494.12c0,24.93 -9.58,45.3 -28.74,61.11 -19.15,15.81 -41.51,23.72 -67.04,23.72 -4.26,0 -11.26,-0.31 -20.99,-0.92l0 -398.62 116.77 0 0 314.7z"/>
   <path class="fil1" d="M2612.05 498.52c0,20.68 -13.98,39.23 -41.96,55.8 -24.33,14.59 -48.04,21.89 -71.15,21.89l0 -250.71c0,-13.37 -3.65,-25.53 -10.94,-36.63 -7.3,-10.94 -17.64,-16.42 -31.02,-16.42 -37.7,0 -56.55,29.94 -56.55,89.69 0,10.34 0.61,24.63 1.82,43.03 1.22,18.24 1.83,30.1 1.83,35.57 0,45.15 -8.21,78.44 -24.63,99.73 -18.85,23.87 -50.48,35.73 -94.87,35.73l0 -315.47c0,-27.37 13.08,-48.49 39.23,-63.09 21.89,-12.17 47.74,-18.24 77.54,-18.24l0.91 46.52c14.6,-20.69 28.58,-33.75 41.96,-39.22 11.56,-4.87 30.72,-7.3 57.47,-7.3 36.49,0 64.01,10.94 82.55,32.99 18.56,21.89 27.83,51.08 27.83,87.72l0 198.4z"/>
  </g>
 </g>
</svg>
